<svg width="55" height="54" viewBox="0 0 55 54" fill="none" xmlns="http://www.w3.org/2000/svg">
<path d="M0.00805664 0V53.95H53.9571V29.404V0H0.00805664Z" fill="#889099"/>
<mask id="mask0_4573_689" style="mask-type:alpha" maskUnits="userSpaceOnUse" x="0" y="16" width="54" height="23">
<path fill-rule="evenodd" clip-rule="evenodd" d="M0 16.7329V38.8299H53.965V16.7329H0Z" fill="white"/>
</mask>
<g mask="url(#mask0_4573_689)">
<path fill-rule="evenodd" clip-rule="evenodd" d="M51.404 26.1599H47.3534L46.4725 24.7611V26.1599H40.6415L40.1241 24.8067H39.1614L38.6528 26.1599H35.1745C34.8572 26.1599 34.5232 26.1339 34.1877 26.0731C33.9822 26.0358 33.7757 25.9858 33.5727 25.9195C33.4084 25.8666 33.246 25.8038 33.0871 25.7302C32.9287 25.6562 32.7728 25.5713 32.6227 25.4742V25.8582V26.1599H26.8104L25.7569 24.7886V26.1599H4.72292L4.205 24.8067H3.24225L2.73365 26.1599H-0.00012207V25.3207V20.7649L1.72577 16.7324H5.58562L6.43949 18.6589V16.7324H11.1709L11.7344 18.3764L12.2881 16.7324H32.6227V17.1454V17.4696C32.7997 17.3514 32.9866 17.2479 33.1818 17.1581C33.3481 17.0821 33.5207 17.0164 33.6982 16.961C33.9243 16.8903 34.1588 16.8364 34.3996 16.7986C34.6826 16.7545 34.9749 16.7324 35.2741 16.7324H41.5047L42.3493 18.6388V16.7324H46.1184L47.0807 18.2401V16.7324H51.404V26.1599ZM53.9646 29.4037V38.2495C53.7523 38.3804 53.5208 38.4922 53.2736 38.582C52.8341 38.7414 52.3442 38.8302 51.8214 38.8302H33.6575L32.604 37.4593V38.8302H28.4176V36.4382C27.8168 36.6614 27.1385 36.7963 26.392 36.7963H26.4553V38.8302H20.4522L19.5895 37.604L18.7537 38.8302H9.16345V29.4037H18.7905L19.6346 30.6117L20.4884 29.4037H53.4923H53.9646Z" fill="#323642"/>
</g>
<path fill-rule="evenodd" clip-rule="evenodd" d="M15.73 30.938V32.2279H12.1703V33.4628H15.6486V34.7346H12.1703V36.0146H15.73V37.2957H10.644V30.938H15.73ZM21.0249 37.2957H22.9323L20.38 34.0896L22.9141 30.938H21.0617L19.4991 32.9542L17.9464 30.938H16.039L18.582 34.1166L16.0478 37.2957H17.9007L19.4628 35.252L21.0249 37.2957ZM23.2682 37.2957V30.938H26.7647C28.1183 30.938 28.9624 31.8012 28.9624 33.0631C28.9624 34.2892 28.1002 35.1971 26.7102 35.1971H24.794V37.2957H23.2682ZM32.0326 35.0068H31.3151V37.2957H29.7893V30.938H33.2406C34.5937 30.938 35.4383 31.7644 35.4383 32.9542C35.4383 33.9714 34.7938 34.7522 33.7129 34.9523L35.8287 37.2957H33.9306L32.0326 35.0068ZM41.6233 30.938V32.2279H38.0632V33.4628H41.5414V34.7346H38.0632V36.0146H41.6233V37.2957H36.5374V30.938H41.6233ZM45.8098 36.024H42.5498V37.2957H45.7642C47.136 37.2957 47.9536 36.46 47.9536 35.2701C47.9536 34.1347 47.2179 33.4721 45.9825 33.4721H44.5111C44.1477 33.4721 43.8936 33.2357 43.8936 32.8635C43.8936 32.4819 44.1477 32.2279 44.5111 32.2279H47.2719L47.8354 30.938H44.5562C43.1849 30.938 42.3674 31.7737 42.3674 32.9179C42.3674 34.0896 43.1398 34.7615 44.3478 34.7615H45.8098C46.1728 34.7615 46.4361 34.9974 46.4361 35.3795C46.4361 35.7694 46.1728 36.024 45.8098 36.024ZM51.8586 36.024H48.598V37.2957H51.8125C53.1847 37.2957 54.0018 36.46 54.0018 35.2701C54.0018 34.1347 53.2661 33.4721 52.0312 33.4721H50.5598C50.1959 33.4721 49.9424 33.2357 49.9424 32.8635C49.9424 32.4819 50.1959 32.2279 50.5598 32.2279H53.3201L53.8841 30.938H50.605C49.2332 30.938 48.4161 31.7737 48.4161 32.9179C48.4161 34.0896 49.1885 34.7615 50.3965 34.7615H51.8586C52.2215 34.7615 52.4849 34.9974 52.4849 35.3795C52.4849 35.7694 52.2215 36.024 51.8586 36.024ZM33.1042 32.2367C33.6491 32.2367 33.9399 32.5908 33.9399 33.0273C33.9399 33.4628 33.6491 33.8076 33.1042 33.8076H31.3151V32.2367H33.1042ZM27.4277 33.0719C27.4277 33.4996 27.1555 33.8532 26.6195 33.8532H24.794V32.2916H26.6195C27.1555 32.2916 27.4277 32.6364 27.4277 33.0719Z" fill="#889099"/>
<path fill-rule="evenodd" clip-rule="evenodd" d="M7.47459 24.6248H5.75801L5.21312 23.2623H2.18901L1.65294 24.6248H0.0270996L2.75204 18.2671H4.75897L7.47459 24.6248ZM9.27258 18.5672L9.30936 20.2838V24.6248H7.82869V18.2671H10.508L11.7248 22.7719L12.9328 18.2671H15.621V24.6248H14.1408V20.2745L14.1771 18.6035L12.4154 24.6248H11.0348L9.27258 18.5672ZM21.9605 19.557V18.2671H16.8746V24.6248H21.9605V23.3261H18.4004V22.0637H21.8786V20.7924H18.4004V19.557H21.9605ZM25.3206 22.3364H24.6031V24.6248H23.0773V18.2671H26.5286C27.8817 18.2671 28.7268 19.094 28.7268 20.2838C28.7268 21.3005 28.0818 22.0818 27.0009 22.2814L29.1172 24.6248H27.2191L25.3206 22.3364ZM31.1241 24.6248H29.5983V21.7905V18.2671H31.1241V21.8268V24.6248ZM35.0202 24.6248H35.1022L35.7285 23.2716H35.2655C34.2208 23.2716 33.6033 22.6179 33.6033 21.4918V21.4011C33.6033 20.3927 34.1571 19.6389 35.2473 19.6389H36.9001V18.2671H35.1203C33.1585 18.2671 32.0869 19.5844 32.0869 21.3917V21.5006C32.0869 23.3898 33.186 24.616 35.0202 24.6248ZM43.3932 24.6248H41.6771L41.1322 23.2623H38.1081L37.5721 24.6248H35.9467L38.6707 18.2671H40.6786L43.3932 24.6248ZM45.2373 20.8194L45.2192 20.2926L45.537 20.8194L47.9706 24.6248H49.7514V18.2671H48.2619V21.9455L48.2801 22.4178L47.9985 21.9455L45.6184 18.2671H43.7483V24.6248H45.2373V20.8194ZM39.1528 20.6379L39.6158 19.4481L40.0783 20.6379L40.6423 22.0455H38.5986L39.1528 20.6379ZM26.3922 19.5663C26.9371 19.5663 27.228 19.9204 27.228 20.3564C27.228 20.7924 26.9371 21.1372 26.3922 21.1372H24.6031V19.5663H26.3922ZM3.23317 20.6379L3.69665 19.4481L4.15964 20.6379L4.72267 22.0455H2.67946L3.23317 20.6379Z" fill="#889099"/>
</svg>
