<svg width="79" height="24" viewBox="0 0 79 24" fill="none" xmlns="http://www.w3.org/2000/svg">
<path fill-rule="evenodd" clip-rule="evenodd" d="M24.0672 4.95775C24.7328 4.95775 25.3071 5.07612 25.7902 5.30928C26.2754 5.54449 26.6764 5.86132 26.9974 6.25979C27.3143 6.6603 27.5502 7.12867 27.7025 7.6649C27.8538 8.20316 27.9297 8.78122 27.9297 9.40061C27.9297 10.3511 27.7548 11.2501 27.401 12.097C27.0477 12.945 26.5677 13.6807 25.9574 14.3083C25.3477 14.9353 24.6277 15.4292 23.7974 15.794C22.9682 16.1598 22.0672 16.3419 21.0995 16.3419C20.9743 16.3419 20.7543 16.3389 20.4436 16.3317C20.1328 16.3256 19.7754 16.294 19.3754 16.2399C18.9728 16.1843 18.5472 16.1016 18.0974 15.9909C17.6482 15.8822 17.2215 15.7297 16.8195 15.5363L20.4123 0.516936L23.6302 0.0205078L22.3441 5.3501C22.6195 5.22663 22.8969 5.13071 23.1738 5.06132C23.4523 4.99398 23.7492 4.95775 24.0672 4.95775ZM21.3682 13.8027C21.8528 13.8027 22.3092 13.6843 22.7384 13.4511C23.1687 13.2185 23.54 12.9037 23.8507 12.5113C24.1615 12.118 24.4082 11.6741 24.5877 11.1782C24.7671 10.6828 24.8579 10.1659 24.8579 9.62765C24.8579 8.96694 24.7471 8.45112 24.5256 8.07867C24.3041 7.70724 23.8948 7.52102 23.3 7.52102C23.1051 7.52102 22.8538 7.55775 22.5425 7.62357C22.2302 7.69449 21.9507 7.8399 21.7 8.05877L20.3302 13.7195C20.4128 13.7333 20.4861 13.7475 20.5482 13.7603C20.6092 13.7741 20.6764 13.7843 20.7436 13.7914C20.8148 13.7996 20.8959 13.8032 20.9938 13.8032C21.0918 13.8032 21.2159 13.8027 21.3682 13.8027Z" fill="#889099"/>
<path fill-rule="evenodd" clip-rule="evenodd" d="M31.2682 16.0535H28.1943L30.7902 5.1867H33.8851L31.2682 16.0535ZM32.7636 3.86374C32.3343 3.86374 31.9456 3.73619 31.6005 3.48211C31.2523 3.22905 31.08 2.83925 31.08 2.31425C31.08 2.02548 31.139 1.75405 31.2559 1.49895C31.3743 1.24384 31.5297 1.02344 31.7241 0.837211C31.9184 0.652007 32.1431 0.504048 32.3984 0.392313C32.6554 0.282619 32.9287 0.228027 33.22 0.228027C33.6487 0.228027 34.0359 0.355068 34.382 0.60966C34.7272 0.865272 34.901 1.25507 34.901 1.77701C34.901 2.0668 34.8425 2.33925 34.7241 2.59435C34.6066 2.84946 34.4518 3.06884 34.2574 3.25609C34.0651 3.44129 33.8379 3.58874 33.5831 3.69946C33.3261 3.81068 33.0543 3.86374 32.7636 3.86374Z" fill="#889099"/>
<path fill-rule="evenodd" clip-rule="evenodd" d="M36.578 2.4808L39.7975 1.98437L39.0067 5.18693H42.4544L41.8318 7.70682H38.4046L37.4918 11.5084C37.4077 11.8252 37.36 12.1211 37.3467 12.3956C37.3318 12.6721 37.3667 12.9094 37.4498 13.1089C37.5323 13.3089 37.6811 13.4629 37.8964 13.5726C38.1108 13.6834 38.418 13.739 38.82 13.739C39.1513 13.739 39.4744 13.7078 39.7867 13.6451C40.097 13.5844 40.4118 13.4987 40.7303 13.3869L40.9595 15.7436C40.5441 15.8951 40.0944 16.0257 39.6098 16.1354C39.1246 16.2461 38.5498 16.2997 37.8857 16.2997C36.9308 16.2997 36.1903 16.1594 35.6631 15.8783C35.1364 15.5951 34.7641 15.2089 34.5411 14.7196C34.3211 14.2323 34.2231 13.6701 34.2508 13.0369C34.2795 12.4022 34.3754 11.7349 34.5411 11.0323L36.578 2.4808Z" fill="#889099"/>
<path fill-rule="evenodd" clip-rule="evenodd" d="M42.319 11.7159C42.319 10.7797 42.4713 9.89753 42.7759 9.07049C43.0795 8.24344 43.5174 7.52049 44.0856 6.89957C44.6518 6.28171 45.341 5.79242 46.1523 5.43375C46.96 5.0761 47.8641 4.896 48.861 4.896C49.4846 4.896 50.042 4.95416 50.5323 5.07202C51.0246 5.19038 51.4703 5.34396 51.8728 5.5363L50.8128 7.93477C50.5359 7.82304 50.2482 7.72457 49.9513 7.63477C49.6538 7.54396 49.2908 7.50008 48.8615 7.50008C47.8359 7.50008 47.0246 7.85161 46.421 8.55263C45.82 9.25467 45.5169 10.1991 45.5169 11.3843C45.5169 12.0868 45.6692 12.6542 45.9749 13.0889C46.279 13.523 46.8405 13.7389 47.6564 13.7389C48.059 13.7389 48.4472 13.697 48.8195 13.6154C49.1944 13.5327 49.5251 13.4292 49.8169 13.3057L50.0461 15.7639C49.6574 15.9144 49.2287 16.0501 48.7585 16.1684C48.2872 16.2832 47.7261 16.3419 47.0754 16.3419C46.2169 16.3419 45.4897 16.2174 44.8954 15.971C44.3005 15.721 43.8087 15.3889 43.4215 14.9684C43.0323 14.547 42.7528 14.0547 42.58 13.4899C42.4067 12.9271 42.319 12.3343 42.319 11.7159H42.319Z" fill="#889099"/>
<path fill-rule="evenodd" clip-rule="evenodd" d="M55.9723 16.3429C55.2385 16.3429 54.6016 16.2322 54.0611 16.0123C53.5221 15.7918 53.0759 15.4832 52.7226 15.0827C52.3693 14.6842 52.1041 14.2117 51.9231 13.6679C51.7416 13.1245 51.6549 12.522 51.6549 11.8623C51.6549 11.0342 51.7888 10.2066 52.0585 9.38113C52.3272 8.5546 52.7257 7.81175 53.2539 7.15103C53.7775 6.4893 54.4231 5.94848 55.1841 5.52654C55.9436 5.10818 56.818 4.89746 57.7995 4.89746C58.5195 4.89746 59.1539 5.00869 59.7016 5.22858C60.2467 5.44899 60.6959 5.75971 61.0513 6.15818C61.4026 6.55869 61.6698 7.02909 61.8493 7.57399C62.0303 8.11634 62.119 8.72042 62.119 9.38062C62.119 10.2061 61.9872 11.0337 61.7257 11.8617C61.4636 12.6852 61.0754 13.4301 60.5626 14.0918C60.0508 14.7526 59.4108 15.2929 58.6421 15.7133C57.8734 16.1327 56.9826 16.3429 55.9723 16.3429ZM57.5082 7.50103C57.0523 7.50103 56.6498 7.63266 56.3047 7.89287C55.9585 8.15562 55.6677 8.48624 55.4334 8.88471C55.1964 9.28471 55.0205 9.72246 54.9021 10.1964C54.7847 10.6725 54.7267 11.122 54.7267 11.5495C54.7267 12.2388 54.8385 12.7755 55.058 13.1623C55.2811 13.5464 55.6811 13.7398 56.2631 13.7398C56.7205 13.7398 57.1211 13.6092 57.4682 13.3464C57.8123 13.0857 58.1031 12.7551 58.3395 12.3556C58.5749 11.9577 58.7523 11.5189 58.8708 11.0439C58.9872 10.5694 59.0462 10.1174 59.0462 9.69083C59.0462 9.00307 58.9349 8.46532 58.7134 8.07909C58.4918 7.69389 58.0898 7.50103 57.5082 7.50103Z" fill="#889099"/>
<path fill-rule="evenodd" clip-rule="evenodd" d="M65.4677 16.0535H62.3918L64.9877 5.1867H68.0842L65.4677 16.0535ZM66.9611 3.86374C66.5324 3.86374 66.1436 3.73619 65.799 3.48211C65.4524 3.22905 65.2785 2.83925 65.2785 2.31425C65.2785 2.02548 65.338 1.75405 65.4554 1.49895C65.5729 1.24384 65.7288 1.02344 65.9231 0.837211C66.1165 0.652007 66.3431 0.504048 66.598 0.392313C66.8534 0.282619 67.1267 0.228027 67.4175 0.228027C67.8472 0.228027 68.2354 0.355068 68.5811 0.60966C68.9272 0.865272 69.1016 1.25507 69.1016 1.77701C69.1016 2.0668 69.0395 2.33925 68.9231 2.59435C68.8067 2.84946 68.6513 3.06884 68.4575 3.25609C68.2626 3.44129 68.039 3.58874 67.7836 3.69946C67.5262 3.81068 67.2534 3.86374 66.9611 3.86374Z" fill="#889099"/>
<path fill-rule="evenodd" clip-rule="evenodd" d="M70.2974 5.68238C70.5307 5.61452 70.7912 5.53289 71.0748 5.44411C71.3594 5.35534 71.6769 5.27268 72.0317 5.19819C72.383 5.12166 72.7789 5.05993 73.2148 5.01095C73.6507 4.96197 74.1466 4.93799 74.6989 4.93799C76.3194 4.93799 77.4374 5.40738 78.0543 6.34411C78.6702 7.28085 78.7774 8.56248 78.3769 10.1865L76.9635 16.0538H73.8697L75.24 10.3099C75.323 9.95125 75.3892 9.60431 75.4374 9.26554C75.4866 8.93034 75.4835 8.63442 75.4266 8.37829C75.3728 8.12523 75.2435 7.9186 75.0441 7.75789C74.841 7.59921 74.5343 7.52064 74.1184 7.52064C73.7179 7.52064 73.3102 7.5635 72.8938 7.64615L70.8789 16.0538H67.7841L70.2974 5.68238Z" fill="#889099"/>
<path fill-rule="evenodd" clip-rule="evenodd" d="M33.1605 22.53L32.5575 23.6198H31.9052C32.3646 22.7953 32.8128 22.0361 33.2498 21.3423C33.6867 20.6484 34.1185 19.9933 34.5452 19.377H35.1298C35.1913 19.6831 35.2477 19.9928 35.299 20.3045C35.3503 20.6167 35.4005 20.9443 35.4498 21.2872C35.499 21.63 35.5462 21.9938 35.5913 22.3775C35.6364 22.7611 35.6836 23.1749 35.7328 23.6203H35.1298C35.1093 23.4366 35.0908 23.252 35.0744 23.0662C35.058 22.8805 35.0395 22.702 35.019 22.5305H33.1605V22.53ZM34.9636 22.052C34.9308 21.7219 34.8928 21.3928 34.8498 21.0662C34.8067 20.7397 34.7564 20.403 34.699 20.056C34.5554 20.2642 34.3769 20.5331 34.1636 20.8611C33.9503 21.1902 33.7082 21.5866 33.4375 22.052H34.9636Z" fill="#889099"/>
<path fill-rule="evenodd" clip-rule="evenodd" d="M37.9139 23.7115C37.6472 23.7115 37.4123 23.6727 37.2093 23.5951C37.0062 23.5176 36.8369 23.4074 36.7016 23.2645C36.5662 23.1222 36.4646 22.9492 36.3969 22.7472C36.3293 22.5451 36.2954 22.3176 36.2954 22.0645C36.2954 21.6972 36.3539 21.3462 36.4708 21.0115C36.5877 20.6773 36.7539 20.3814 36.9693 20.1242C37.1846 19.8671 37.4441 19.662 37.7477 19.5084C38.0513 19.3553 38.3893 19.2788 38.7631 19.2788C39.0831 19.2788 39.3385 19.3115 39.5293 19.3768C39.72 19.4421 39.8564 19.5033 39.9385 19.5604L39.6923 20.0502C39.5975 19.989 39.4698 19.9308 39.3077 19.8757C39.1457 19.8212 38.9539 19.7931 38.7323 19.7931C38.4493 19.7931 38.1949 19.8594 37.9693 19.9926C37.7436 20.1252 37.5528 20.2967 37.3969 20.5069C37.2411 20.7171 37.1221 20.9538 37.04 21.2171C36.958 21.4803 36.9169 21.7405 36.9169 21.9977C36.9169 22.7936 37.2636 23.1916 37.9569 23.1916C38.1046 23.1916 38.2369 23.1808 38.3539 23.1604C38.4708 23.1405 38.5744 23.1166 38.6646 23.09C38.7549 23.0635 38.8349 23.0344 38.9046 23.0013C38.9744 22.9686 39.0359 22.94 39.0893 22.9155L39.1631 23.4298C39.1139 23.4584 39.0493 23.489 38.9693 23.5217C38.8893 23.5543 38.7959 23.5849 38.6893 23.614C38.5826 23.6426 38.4636 23.6661 38.3323 23.6844C38.2011 23.7028 38.0616 23.7115 37.9139 23.7115Z" fill="#889099"/>
<path fill-rule="evenodd" clip-rule="evenodd" d="M41.3713 23.7115C41.1046 23.7115 40.8697 23.6727 40.6667 23.5951C40.4636 23.5176 40.2943 23.4074 40.159 23.2645C40.0236 23.1222 39.922 22.9492 39.8543 22.7472C39.7867 22.5451 39.7528 22.3176 39.7528 22.0645C39.7528 21.6972 39.8113 21.3462 39.9282 21.0115C40.0451 20.6773 40.2113 20.3814 40.4267 20.1242C40.642 19.8671 40.9015 19.662 41.2051 19.5084C41.5087 19.3553 41.8467 19.2788 42.2205 19.2788C42.5405 19.2788 42.7959 19.3115 42.9867 19.3768C43.1774 19.4421 43.3138 19.5033 43.3959 19.5604L43.1497 20.0502C43.0549 19.989 42.9272 19.9308 42.7651 19.8757C42.6031 19.8212 42.4113 19.7931 42.1897 19.7931C41.9067 19.7931 41.6523 19.8594 41.4267 19.9926C41.201 20.1252 41.0102 20.2967 40.8543 20.5069C40.6984 20.7171 40.5795 20.9538 40.4974 21.2171C40.4154 21.4803 40.3743 21.7405 40.3743 21.9977C40.3743 22.7936 40.721 23.1916 41.4143 23.1916C41.562 23.1916 41.6943 23.1808 41.8113 23.1604C41.9282 23.1405 42.0318 23.1166 42.122 23.09C42.2123 23.0635 42.2923 23.0344 42.362 23.0013C42.4318 22.9686 42.4933 22.94 42.5467 22.9155L42.6205 23.4298C42.5713 23.4584 42.5067 23.489 42.4267 23.5217C42.3467 23.5543 42.2533 23.5849 42.1467 23.614C42.04 23.6426 41.921 23.6661 41.7897 23.6844C41.6584 23.7028 41.519 23.7115 41.3713 23.7115Z" fill="#889099"/>
<path fill-rule="evenodd" clip-rule="evenodd" d="M43.0236 23.6193L44.0451 19.3765H46.562L46.4451 19.8724H44.5189L44.2113 21.152H45.922L45.8051 21.6356H44.1005L43.7374 23.1234H45.8051L45.6882 23.6193H43.0236H43.0236Z" fill="#889099"/>
<path fill-rule="evenodd" clip-rule="evenodd" d="M48.3436 19.334C48.84 19.334 49.2144 19.4279 49.4667 19.6156C49.719 19.8034 49.8452 20.0768 49.8452 20.436C49.8452 20.7136 49.7929 20.9539 49.6882 21.1554C49.5836 21.3575 49.4349 21.5238 49.2421 21.6549C49.0493 21.7855 48.8175 21.8819 48.5467 21.9452C48.2759 22.0085 47.9744 22.0406 47.6421 22.0406H47.2175L46.8359 23.6202H46.239L47.2482 19.4325C47.4206 19.3916 47.6031 19.3651 47.7959 19.3529C47.9888 19.3401 48.1713 19.334 48.3436 19.334ZM48.2698 19.836C47.9785 19.836 47.8021 19.8442 47.7406 19.8605L47.3344 21.5442H47.7221C47.8944 21.5442 48.0708 21.5294 48.2513 21.4983C48.4318 21.4677 48.5939 21.4136 48.7375 21.3365C48.8811 21.259 48.999 21.1518 49.0913 21.0146C49.1836 20.8779 49.2298 20.7018 49.2298 20.4855C49.2298 20.2529 49.1436 20.0865 48.9713 19.986C48.799 19.886 48.5652 19.836 48.2698 19.836Z" fill="#889099"/>
<path fill-rule="evenodd" clip-rule="evenodd" d="M53.4856 19.3765L53.3687 19.8724H52.0825L51.1779 23.6193H50.581L51.4856 19.8724H50.1995L50.3164 19.3765H53.4856Z" fill="#889099"/>
<path fill-rule="evenodd" clip-rule="evenodd" d="M52.9318 23.6193L53.9533 19.3765H56.4702L56.3533 19.8724H54.4271L54.1195 21.152H55.8302L55.7133 21.6356H54.0087L53.6456 23.1234H55.7133L55.5964 23.6193H52.9318H52.9318Z" fill="#889099"/>
<path fill-rule="evenodd" clip-rule="evenodd" d="M58.2425 19.334C58.8743 19.334 59.3461 19.4819 59.6579 19.7779C59.9697 20.0738 60.1256 20.4728 60.1256 20.9748C60.1256 21.3258 60.0702 21.6636 59.9594 21.9876C59.8487 22.3126 59.6764 22.5988 59.4425 22.8483C59.2087 23.0967 58.9102 23.2952 58.5471 23.4421C58.1841 23.5891 57.7502 23.6626 57.2456 23.6626C57.0733 23.6626 56.8866 23.6544 56.6856 23.6381C56.4846 23.6217 56.3082 23.5932 56.1564 23.5524L57.1471 19.4319C57.3194 19.3911 57.502 19.3646 57.6948 19.3524C57.8877 19.3401 58.0702 19.334 58.2425 19.334ZM58.1933 19.836C57.8856 19.836 57.701 19.8442 57.6394 19.8605L56.8518 23.1299C56.8846 23.1381 56.94 23.1452 57.0179 23.1513C57.0959 23.1575 57.223 23.1605 57.3994 23.1605C57.7236 23.1605 58.0159 23.1069 58.2764 22.9988C58.5369 22.8906 58.7574 22.7396 58.9379 22.5452C59.1184 22.3513 59.2579 22.1212 59.3564 21.8539C59.4548 21.5865 59.5041 21.2937 59.5041 20.9753C59.5041 20.6161 59.3994 20.3365 59.1902 20.136C58.981 19.9365 58.6487 19.836 58.1933 19.836Z" fill="#889099"/>
<path fill-rule="evenodd" clip-rule="evenodd" d="M64.7226 23.6193H64.1257L64.5995 21.6479H62.6241L62.1503 23.6193H61.5533L62.5749 19.3765H63.1718L62.741 21.152H64.7169L65.1477 19.3765H65.7446L64.7226 23.6193Z" fill="#889099"/>
<path fill-rule="evenodd" clip-rule="evenodd" d="M65.6641 23.6193L66.6856 19.3765H69.2025L69.0851 19.8724H67.1589L66.8512 21.152H68.562L68.4446 21.6356H66.74L66.3774 23.1234H68.4446L68.3271 23.6193H65.6641H65.6641Z" fill="#889099"/>
<path fill-rule="evenodd" clip-rule="evenodd" d="M70.9841 19.334C71.4395 19.334 71.8005 19.4258 72.0672 19.6095C72.3339 19.7932 72.4667 20.0626 72.4667 20.4171C72.4667 20.7763 72.3616 21.0779 72.1503 21.3207C71.939 21.5636 71.6426 21.7381 71.2611 21.8437C71.3103 21.9299 71.3677 22.0391 71.4334 22.1717C71.499 22.3044 71.5667 22.4513 71.6364 22.6126C71.7057 22.7733 71.7739 22.9411 71.8395 23.1141C71.9052 23.2881 71.9621 23.4559 72.0118 23.6192H71.4026C71.3457 23.4641 71.2857 23.3069 71.2241 23.1478C71.1631 22.9886 71.1 22.8355 71.037 22.6886C70.9728 22.5416 70.9098 22.4039 70.8457 22.2753C70.7826 22.1467 70.7236 22.033 70.6703 21.9355C70.617 21.9396 70.5636 21.9427 70.5103 21.9447C70.457 21.9467 70.4041 21.9478 70.3503 21.9478H69.8764L69.4764 23.6192H68.8795L69.8893 19.4314C70.0616 19.3906 70.2436 19.3641 70.437 19.3518C70.6293 19.3401 70.8118 19.334 70.9841 19.334ZM70.9103 19.836C70.619 19.836 70.4426 19.8442 70.3805 19.8605L69.9928 21.4651H70.3564C70.5246 21.4651 70.697 21.4529 70.8734 21.4284C71.0498 21.4039 71.2108 21.3559 71.3559 21.2845C71.5016 21.2131 71.6205 21.1131 71.7128 20.9845C71.8052 20.8559 71.8518 20.6855 71.8518 20.4733C71.8518 20.2447 71.7646 20.0814 71.5903 19.9835C71.4159 19.885 71.1887 19.836 70.9103 19.836Z" fill="#889099"/>
<path fill-rule="evenodd" clip-rule="evenodd" d="M72.5123 23.6193L73.5339 19.3765H76.0508L75.9334 19.8724H74.0072L73.6995 21.152H75.4103L75.2928 21.6356H73.5882L73.2257 23.1234H75.2928L75.1754 23.6193H72.5123H72.5123Z" fill="#889099"/>
<path fill-rule="evenodd" clip-rule="evenodd" d="M8.22769 16.3419C12.7576 16.3419 16.4297 12.6884 16.4297 8.18169C16.4297 3.67493 12.7576 0.0214844 8.22769 0.0214844C3.69782 0.0214844 0.0256348 3.67493 0.0256348 8.18169C0.0256348 12.6884 3.69782 16.3419 8.22769 16.3419ZM10.0395 4.95873C11.1759 5.34853 12.0072 5.9322 11.8441 7.01842C11.7256 7.81383 11.2826 8.19852 10.6938 8.33322C11.5015 8.75159 11.9128 9.39291 11.521 10.5057C11.0354 11.8873 9.88102 12.0036 8.34564 11.7149L7.97282 13.2001L7.07282 12.9766L7.44051 11.5113C7.20718 11.4536 6.96872 11.3919 6.72308 11.3261L6.35385 12.7985L5.45487 12.5751L5.82718 11.0868C5.74797 11.0666 5.66818 11.0458 5.58781 11.0249C5.45534 10.9905 5.32128 10.9557 5.18564 10.922L4.01436 10.6317L4.46154 9.60618C4.46154 9.60618 5.12513 9.78118 5.1159 9.76842C5.37077 9.83118 5.4841 9.66587 5.52872 9.55618L6.11743 7.2072L6.13051 7.21039L6.13059 7.21042C6.15916 7.2174 6.18657 7.2241 6.21282 7.23118C6.17641 7.21587 6.1441 7.2072 6.11897 7.20108L6.53897 5.52506C6.55026 5.33475 6.4841 5.09495 6.11949 5.00414C6.13333 4.99444 5.46564 4.8424 5.46564 4.8424L5.70513 3.88577L6.94667 4.19393L6.94564 4.19853C7.13231 4.24495 7.32461 4.28883 7.52051 4.33322L7.88974 2.86179L8.78923 3.08526L8.42769 4.52761C8.66974 4.5822 8.91282 4.63781 9.14923 4.69648L9.5082 3.26332L10.4082 3.48679L10.0395 4.95873ZM9.78718 9.88832C9.53164 10.909 7.92568 10.4865 7.19138 10.2933L7.19129 10.2932C7.12545 10.2759 7.06662 10.2604 7.01641 10.248L7.51077 8.27659C7.57209 8.29181 7.64701 8.30854 7.73187 8.32748L7.73191 8.32749C8.49165 8.4971 10.0487 8.84471 9.78718 9.88832ZM7.88599 7.41326C8.49907 7.57561 9.83312 7.92889 10.0656 7.00261C10.3029 6.0549 9.00678 5.76868 8.37219 5.62854C8.30028 5.61266 8.23686 5.59865 8.18513 5.58577L7.73692 7.37455C7.77961 7.38509 7.82977 7.39837 7.88599 7.41326Z" fill="#889099"/>
</svg>
