<svg width="66" height="52" viewBox="0 0 66 52" fill="none" xmlns="http://www.w3.org/2000/svg">
<path fill-rule="evenodd" clip-rule="evenodd" d="M62.8099 48.4678V43.6235H61.686V46.4335C61.2833 45.9153 60.6558 45.6225 60 45.6467C58.4481 45.6467 57.1901 46.9047 57.1901 48.4566C57.1901 50.0085 58.4481 51.2665 60 51.2665C60.6558 51.2907 61.2833 50.9979 61.686 50.4797V51.1316H62.8099V48.4678ZM27.967 45.7816H29.8889L29.9002 46.8493H27.9894V49.2996C27.9894 49.8391 28.203 50.1987 28.765 50.1987C29.1298 50.1867 29.4856 50.0822 29.799 49.8953L30.1362 50.8956C29.698 51.1691 29.1916 51.3132 28.6751 51.3115C27.2926 51.3115 26.8093 50.5697 26.8093 49.322V46.8493H25.719V45.7816H26.7868V44.1518H27.967V45.7816ZM12.4281 47.7822V51.1541L11.248 51.1766V48.1868C11.248 47.2764 10.8658 46.7706 10.0678 46.7706C9.69348 46.7525 9.3304 46.9013 9.07649 47.1769C8.82258 47.4525 8.704 47.8265 8.75275 48.1981V51.1766H7.57258V48.1868C7.57258 47.2764 7.17919 46.7706 6.40365 46.7706C6.02876 46.7504 5.66441 46.8986 5.41003 47.1747C5.15564 47.4508 5.03779 47.8261 5.08861 48.1981V51.1541H3.90845V45.7816H5.07737V46.4447C5.42331 45.9185 6.02202 45.6149 6.65093 45.6467C7.37323 45.6156 8.05465 45.9822 8.42679 46.602C8.83498 45.9632 9.55854 45.5971 10.3151 45.6467C10.8891 45.613 11.4499 45.828 11.8544 46.2367C12.2589 46.6455 12.4679 47.2085 12.4281 47.7822ZM39.8585 45.6467C39.278 45.6296 38.7346 45.9315 38.4423 46.4335V45.7816H37.2846V51.1541H38.4536V48.1419C38.4536 47.2539 38.8357 46.7594 39.5775 46.7594C39.8276 46.756 40.0758 46.8018 40.3081 46.8943L40.6678 45.7703C40.4008 45.6748 40.1196 45.6254 39.8361 45.6242L39.8585 45.6467ZM22.5944 45.6467C23.3637 45.6202 24.1245 45.8153 24.7861 46.2087L24.2691 47.1528C23.7558 46.8575 23.1753 46.6988 22.5832 46.692C21.9425 46.692 21.5603 46.9617 21.5603 47.3214C21.5603 47.6811 21.965 47.7822 22.4708 47.8497L23.0327 47.9283C24.2017 48.0969 24.9098 48.5128 24.9098 49.5356C24.9098 50.5584 24.0106 51.289 22.4595 51.289C21.6294 51.3118 20.8138 51.0676 20.1329 50.5921L20.6949 49.6817C21.2106 50.0643 21.8401 50.2623 22.482 50.2437C23.28 50.2437 23.7071 50.0077 23.7071 49.5918C23.7071 49.2883 23.4037 49.1197 22.763 49.0298L22.201 48.9511C20.9984 48.7825 20.3465 48.243 20.3465 47.3663C20.3465 46.2986 21.2344 45.6467 22.5944 45.6467ZM56.0942 45.6467C55.5137 45.6296 54.9703 45.9315 54.678 46.4335V45.7816H53.5203V51.1541H54.6893V48.1419C54.6893 47.2539 55.0714 46.7594 55.8132 46.7594C56.0633 46.756 56.3115 46.8018 56.5438 46.8943L56.9035 45.7703C56.6365 45.6748 56.3553 45.6254 56.0718 45.6242L56.0942 45.6467ZM41.8454 50.4947C41.2999 49.9599 41.005 49.22 41.0331 48.4566V48.4341C41.005 47.6707 41.2999 46.9308 41.8454 46.396C42.3909 45.8612 43.1365 45.581 43.8992 45.6242C44.601 45.5885 45.2908 45.8171 45.8324 46.2649L45.2704 47.209C44.8663 46.9008 44.3736 46.7313 43.8655 46.7257C42.9695 46.7982 42.2793 47.5465 42.2793 48.4454C42.2793 49.3443 42.9695 50.0925 43.8655 50.165C44.3736 50.1594 44.8663 49.9899 45.2704 49.6817L45.8324 50.6258C45.2908 51.0736 44.601 51.3022 43.8992 51.2665C43.1365 51.3097 42.3909 51.0296 41.8454 50.4947ZM51.9805 48.4566V45.7816H50.8116V46.4335C50.4089 45.9153 49.7815 45.6225 49.1256 45.6467C47.5738 45.6467 46.3157 46.9047 46.3157 48.4566C46.3157 50.0085 47.5738 51.2665 49.1256 51.2665C49.7815 51.2907 50.4089 50.9979 50.8116 50.4797V51.1316H51.9805V48.4566ZM49.313 46.9292C48.4302 46.896 47.6827 47.5747 47.6308 48.4566C47.6009 48.9055 47.76 49.3464 48.0694 49.673C48.3789 49.9995 48.8107 50.182 49.2605 50.1763C50.144 50.1717 50.8617 49.4618 50.876 48.5784C50.8903 47.695 50.1958 46.9623 49.313 46.9292ZM33.525 45.6467C31.9731 45.6684 30.7327 46.9441 30.7544 48.4959C30.7761 50.0478 32.0518 51.2882 33.6037 51.2665C34.4122 51.308 35.2073 51.0476 35.8347 50.5359L35.2727 49.6705C34.829 50.0264 34.2792 50.2241 33.7104 50.2325C32.907 50.3016 32.1945 49.7186 32.1032 48.9174H36.0932V48.4678C36.0932 46.7819 35.048 45.6579 33.5418 45.6579L33.525 45.6467ZM34.4751 47.0621C34.22 46.8176 33.8782 46.6844 33.525 46.692H33.5025C32.7514 46.6663 32.1174 47.2454 32.0751 47.9958H34.885C34.8776 47.6425 34.7302 47.3066 34.4751 47.0621ZM64.7738 50.373C64.8422 50.3738 64.9099 50.3871 64.9736 50.4123C65.0381 50.4386 65.0972 50.4767 65.1478 50.5247C65.1972 50.5731 65.2372 50.6303 65.2658 50.6933C65.3233 50.8259 65.3233 50.9765 65.2658 51.1092C65.2372 51.1721 65.1972 51.2293 65.1478 51.2778C65.0972 51.3257 65.0381 51.3638 64.9736 51.3901C64.9063 51.4198 64.8336 51.4351 64.76 51.4351C64.5426 51.4335 64.3456 51.3065 64.2542 51.1092C64.1974 50.9764 64.1974 50.8261 64.2542 50.6933C64.2829 50.6303 64.3229 50.5731 64.3722 50.5247C64.4228 50.4767 64.4819 50.4386 64.5465 50.4123C64.6197 50.3832 64.6982 50.3698 64.7769 50.373H64.7738ZM64.7649 51.3227C64.8193 51.3224 64.8731 51.3109 64.923 51.289C64.9713 51.2674 65.0152 51.2369 65.0522 51.1991C65.198 51.0401 65.198 50.7961 65.0522 50.6371C65.0153 50.5992 64.9714 50.5686 64.923 50.5472C64.8716 50.5248 64.8161 50.5133 64.76 50.5135C64.704 50.5137 64.6486 50.5252 64.597 50.5472C64.5466 50.5679 64.5007 50.5984 64.4622 50.6371C64.3164 50.7961 64.3164 51.0401 64.4622 51.1991C64.5008 51.2376 64.5466 51.2682 64.597 51.289C64.6537 51.3134 64.7152 51.325 64.7769 51.3227H64.7649ZM64.9399 50.6989C64.8979 50.6673 64.8462 50.6514 64.7937 50.6539L64.5577 50.6596V51.1541H64.6645V50.9687H64.7151L64.8668 51.1541H64.9961L64.8331 50.9687C64.877 50.9655 64.9185 50.9477 64.9511 50.9181C64.9778 50.8914 64.9921 50.8547 64.9904 50.8169C64.9936 50.7717 64.9748 50.7278 64.9399 50.6989ZM64.6701 50.7495V50.8844H64.7937C64.8157 50.8909 64.8392 50.8909 64.8612 50.8844C64.8692 50.8685 64.8692 50.8497 64.8612 50.8338C64.8692 50.8179 64.8692 50.7991 64.8612 50.7832C64.8392 50.7766 64.8157 50.7766 64.7937 50.7832L64.6701 50.7495ZM60.1705 46.9404C59.2877 46.9073 58.5403 47.5859 58.4883 48.4678C58.4585 48.9167 58.6175 49.3577 58.9269 49.6842C59.2364 50.0107 59.6682 50.1932 60.118 50.1875C61.0015 50.1829 61.7192 49.473 61.7335 48.5896C61.7478 47.7063 61.0534 46.9735 60.1705 46.9404ZM19.0202 48.4678V45.7816H17.8513V46.4335C17.4485 45.9153 16.8211 45.6225 16.1653 45.6467C14.6134 45.6467 13.3554 46.9047 13.3554 48.4566C13.3554 50.0085 14.6134 51.2665 16.1653 51.2665C16.8211 51.2907 17.4485 50.9979 17.8513 50.4797V51.1316H19.0202V48.4678ZM16.3527 46.9404C15.4698 46.9073 14.7224 47.5859 14.6704 48.4678H14.6592C14.6292 48.9187 14.7897 49.3615 15.1017 49.6884C15.4136 50.0153 15.8484 50.1964 16.3002 50.1875C17.1836 50.1829 17.9014 49.473 17.9157 48.5896C17.9299 47.7063 17.2355 46.9735 16.3527 46.9404Z" fill="#889099"/>
<path opacity="0.4" d="M25.5224 20.7506C25.5158 14.5416 28.3654 8.67449 33.2497 4.84089C24.9547 -1.67809 13.0427 -0.72854 5.88521 7.02221C-1.27228 14.773 -1.27228 26.7227 5.88521 34.4735C13.0427 42.2242 24.9547 43.1738 33.2497 36.6548C28.3669 32.8224 25.5175 26.9578 25.5224 20.7506Z" fill="#889099"/>
<path d="M65.9852 20.7509C65.985 28.4969 61.562 35.5629 54.5948 38.9478C47.6275 42.3328 39.3391 41.4425 33.2496 36.655C38.1302 32.8194 40.9799 26.9555 40.9799 20.7481C40.9799 14.5406 38.1302 8.67676 33.2496 4.84113C39.3391 0.0536513 47.6275 -0.836667 54.5948 2.5483C61.562 5.93326 65.985 12.9992 65.9852 20.7453V20.7509Z" fill="#889099"/>
<path opacity="0.65" d="M33.4298 37.1789C28.5645 33.4306 25.4298 27.5462 25.4298 20.9295C25.4298 14.3129 28.5645 8.42843 33.4298 4.68018C38.2951 8.42843 41.4298 14.3129 41.4298 20.9295C41.4298 27.5462 38.2951 33.4306 33.4298 37.1789Z" fill="#889099"/>
<path fill-rule="evenodd" clip-rule="evenodd" d="M64.052 32.631V33.2829H63.934V32.631H63.6473V32.4961H64.3161V32.631H64.052ZM65.3501 32.4961V33.2829L65.2321 33.2885V32.6928L65.013 33.2042H64.8612L64.642 32.6928V33.2829H64.4959V32.4961H64.6758L64.9118 33.0581L65.1478 32.4961H65.3501Z" fill="#889099"/>
</svg>
