<svg width="74" height="18" viewBox="0 0 74 18" fill="none" xmlns="http://www.w3.org/2000/svg">
<path fill-rule="evenodd" clip-rule="evenodd" d="M73.1174 1.40527H71.9882C71.2657 1.40527 70.7293 1.89022 70.3136 2.48199L69.1966 4.074C69.1959 4.07466 69.1959 4.07532 69.1953 4.07597L66.7758 7.52199L64.6779 4.53635C64.6683 4.52138 64.6633 4.50771 64.6524 4.49221L63.2393 2.48593C62.8225 1.89469 62.2808 1.41053 61.5584 1.41053H60.5116C59.7891 1.41053 59.321 1.89403 59.7392 2.48396L61.1607 4.49405C61.1638 4.49799 61.1677 4.50193 61.1709 4.5064L65.2169 10.2186V16.6854C65.2169 17.4095 65.8084 18.0006 66.531 18L67.0206 17.9986C67.7433 17.9981 68.3348 17.4043 68.3348 16.6802V10.2121L72.6449 4.12853C72.6583 4.11105 72.6756 4.09411 72.6883 4.07597L73.815 2.48002C74.2331 1.88891 73.8399 1.40527 73.1174 1.40527Z" fill="#889099"/>
<path fill-rule="evenodd" clip-rule="evenodd" d="M25.9537 9.18088L30.0136 5.27265C30.0324 5.25583 32.8835 2.51129 32.8835 2.51129C33.3966 2.01662 32.8445 1.40527 32.1415 1.40527H30.5977C29.8949 1.40527 29.5398 1.811 29.0276 2.30764L26.0224 5.22088C26.0198 5.22338 26.0182 5.226 26.0154 5.22929L24.0815 7.10392V4.97834H24.0733C24.0752 4.94983 24.0815 4.92197 24.0815 4.89346V2.72256C24.0815 1.99849 23.5067 1.40527 22.8037 1.40527H22.2297C21.5271 1.40527 20.9519 1.99849 20.9519 2.72256V4.89346C20.9519 4.92197 20.9584 4.94983 20.9602 4.97834H20.9519V16.6828C20.9519 17.4069 21.5271 18 22.2297 18H22.8037C23.5067 18 24.0815 17.4069 24.0815 16.6828V11.4418L26.8367 14.2766H26.8399L29.5518 17.0699C30.0494 17.5812 30.392 18 31.0951 18H32.6408C33.3436 18 33.6431 17.1431 33.1456 16.6316L25.9537 9.18088Z" fill="#889099"/>
<path fill-rule="evenodd" clip-rule="evenodd" d="M56.5185 10.8052H53.4936C53.1303 10.8052 52.9456 10.531 53.0818 10.1953L54.7525 6.10038C54.8895 5.76469 55.1138 5.76469 55.2513 6.09973L56.9297 10.196C57.0672 10.531 56.8818 10.8052 56.5185 10.8052ZM62.5948 16.3574H62.6026L57.3287 3.2443H57.3261L57.0787 2.62849C56.8089 1.95565 55.9936 1.40527 55.2672 1.40527H54.743C54.0166 1.40527 53.202 1.95631 52.9341 2.6298L52.6898 3.2443H52.6809L47.427 16.288H47.4288L47.2307 16.7781C46.9589 17.4504 47.3323 18 48.0586 18H49.2345C49.9609 18 50.3024 17.4445 50.5548 16.7651L50.732 16.288H50.7391L51.801 13.4637H58.2232L58.3102 13.6905L58.3747 13.8254L59.3217 16.3574H59.3249L59.4771 16.7651C59.7303 17.4445 60.174 18 60.9011 18H61.9407C62.6678 18 63.0392 17.4509 62.7661 16.7794L62.5948 16.3574Z" fill="#889099"/>
<path fill-rule="evenodd" clip-rule="evenodd" d="M46.2486 7.63025C46.127 7.93757 45.95 8.19364 45.7127 8.40412L45.7153 8.40162L45.7133 8.40412C45.2376 8.82364 44.5292 9.05251 43.5751 9.05251H41.852C41.483 9.05251 41.1813 8.75624 41.1813 8.39387V4.70019C41.1813 4.33849 41.483 4.04168 41.852 4.04168H43.5751C44.5292 4.04168 45.2376 4.27043 45.7127 4.69113C45.9505 4.90122 46.127 5.15532 46.2486 5.46316C46.3687 5.77047 46.4313 6.12903 46.4313 6.54184C46.4313 6.95873 46.3687 7.32044 46.2486 7.63025ZM49.3598 8.75821C49.6283 8.11126 49.7608 7.37037 49.7608 6.54184C49.7608 5.71989 49.6283 4.98346 49.3598 4.34046C49.0926 3.69745 48.6885 3.14773 48.1533 2.70692C47.0907 1.83254 45.5432 1.40527 43.5751 1.40527H39.3162C38.579 1.40527 37.9752 1.99849 37.9752 2.72256V16.6828C37.9752 17.4069 38.579 18 39.3162 18H39.8404C40.5777 18 41.1813 17.4069 41.1813 16.6828V11.6888H43.5751C45.5432 11.6888 47.0907 11.2649 48.1526 10.3924C48.6866 9.95409 49.0926 9.40384 49.3598 8.75821Z" fill="#889099"/>
<path fill-rule="evenodd" clip-rule="evenodd" d="M14.9998 13.6594C14.5599 14.2104 14.0567 14.6129 13.4754 14.88C12.8942 15.1471 12.2303 15.2825 11.4699 15.2825C10.7078 15.2825 10.0434 15.1471 9.46 14.88C8.87435 14.6129 8.36892 14.2065 7.92505 13.6548C7.40433 13.0118 7.03666 12.2066 6.81453 11.257L6.60951 9.87438C6.60316 9.79135 6.59875 9.61634 6.59642 9.42833C6.59227 9.23125 6.59007 9.01223 6.59007 8.83328C6.59007 8.67968 6.59227 8.55316 6.59447 8.50074L6.75336 7.11802C6.9602 6.03684 7.35184 5.13119 7.92505 4.41815L7.92258 4.42262H7.92505C8.36892 3.86646 8.87435 3.46402 9.46 3.19757C10.0434 2.93046 10.7078 2.795 11.4699 2.795C12.2303 2.795 12.8942 2.93046 13.4754 3.19757C14.0567 3.46402 14.5599 3.86646 14.9998 4.41815C15.8796 5.52088 16.3364 7.06941 16.3364 9.04336C16.3364 11.0119 15.8796 12.5568 14.9998 13.6594ZM17.4235 2.5409C15.938 0.904736 13.9172 0.0730571 11.4699 0.0776557C9.01146 0.0730571 6.9865 0.904736 5.49886 2.5409C4.40363 3.74006 3.71145 5.25837 3.42595 7.05193V7.05653L3.29324 8.4696V8.47866C3.2843 8.65827 3.2738 8.84168 3.2738 9.04336C3.2738 9.34082 3.28689 9.62935 3.30413 9.90933V9.9184L3.48479 11.3316V11.3361C3.79841 12.9943 4.46428 14.412 5.49886 15.5452C6.9865 17.1728 9.01146 18.0045 11.4699 17.9999C13.9172 18.0045 15.938 17.1728 17.4235 15.5366C18.8995 13.9128 19.6424 11.7166 19.6424 9.04336C19.6424 6.36544 18.9021 4.16405 17.4235 2.5409Z" fill="#889099"/>
<path fill-rule="evenodd" clip-rule="evenodd" d="M11.4268 8.04293H0.654785L1.66824 6.05176H12.4402L11.4268 8.04293Z" fill="#889099"/>
<path fill-rule="evenodd" clip-rule="evenodd" d="M9.4085 12.0256H0L1.06749 10.0342H10.476L9.4085 12.0256Z" fill="#889099"/>
</svg>
