<svg width="0" height="0" class="hidden">
  <symbol fill="none" xmlns="http://www.w3.org/2000/svg" viewBox="0 0 60 60" id="rss">
    <mask id="a" fill="#fff">
      <path fill-rule="evenodd" clip-rule="evenodd" d="M37.2 23.1A37.9 37.9 0 0 1 48.3 48h-3.6c-1-17.4-15-31.3-32.3-32.3V12a38 38 0 0 1 24.8 11.1Zm-25.6-5.5a32.4 32.4 0 0 1 31 31.1c.1.7.7 1.3 1.4 1.3h5c.7 0 1.3-.6 1.2-1.3A39.9 39.9 0 0 0 11.6 10c-.7 0-1.2.5-1.2 1.2v5.2c0 .7.5 1.2 1.2 1.2Zm0 6a26.3 26.3 0 0 1 25.1 25.1c0 .7-.5 1.3-1.2 1.3h-5.2c-.6 0-1.2-.6-1.2-1.3a18.7 18.7 0 0 0-17.5-17.4c-.7 0-1.2-.6-1.2-1.3v-5.2c0-.7.5-1.2 1.2-1.2Zm16 9.1c4 4 6.6 9.4 7 15.3H31a20.6 20.6 0 0 0-18.6-18.7v-3.6c5.9.4 11.2 3 15.2 7Z"></path>
    </mask>
    <path d="m37.2 23.1-1.4 1.4 1.4-1.4Zm0 0-1.4 1.4 1.4-1.4ZM48.3 48v2h2.1v-2.1l-2 .1Zm-3.6 0-2 .1V50h2v-2ZM12.4 15.7h-2v1.9h1.9v-2Zm0-3.7v-2h-2v2h2Zm30.3 36.7-2 .1h2Zm-31-31-.1 2v-2Zm38.6 31-2 .1h2Zm-11.7-27-1.4 1.4 1.4-1.4ZM11.6 10v2-2ZM29 31.3l-1.4 1.4 1.4-1.4Zm-17.4-7.7.1-2v2Zm25.1 25.1h2-2Zm-7.6 0h2-2Zm-5.5-12-1.4 1.4 1.4-1.4Zm-12-5.4-.1 2 .1-2Zm23 16.7v2h2.2l-.1-2.2-2 .2Zm-7-15.3 1.4-1.4-1.4 1.4ZM31 48l-2 .2.2 1.8H31v-2Zm-6-12.7-1.4 1.4 1.4-1.4Zm-12.6-6h-2v1.8l1.8.2.2-2Zm0-3.6.1-2-2.1-.2v2.2h2Zm15.2 7-1.4 1.5 1.4-1.5Zm11-11-2.8 2.8 2.8-2.8ZM50.3 48a39.9 39.9 0 0 0-11.7-26.2l-2.8 2.8c6.1 6.2 10 14.4 10.5 23.6l4-.2Zm-5.6 2h3.6v-4h-3.6v4ZM12.3 17.7c16.3 1 29.4 14 30.4 30.4l4-.2a36.4 36.4 0 0 0-34.2-34.2l-.2 4Zm-2-5.7v3.7h4V12h-4Zm28.3 9.7A39.9 39.9 0 0 0 12.5 10l-.2 4a36 36 0 0 1 23.5 10.5l2.8-2.8Zm6 27a34.4 34.4 0 0 0-32.9-33l-.1 4a30.4 30.4 0 0 1 29 29.1l4-.1ZM44 48c.4 0 .7.4.7.7l-4 .1c0 1.7 1.4 3.2 3.3 3.2v-4Zm5.1 0H44v4h5v-4Zm-.8.8c0-.4.4-.8.8-.8v4c1.8 0 3.3-1.5 3.2-3.3l-4 .1Zm-11-25.7a37.9 37.9 0 0 1 11 25.7l4-.1c-.3-11-5-21-12.3-28.4l-2.8 2.8ZM11.5 12c10 .3 19 4.5 25.6 11.1l2.8-2.8A41.8 41.8 0 0 0 11.7 8l-.1 4Zm.8-.8c0 .5-.4.8-.8.8l.1-4a3.2 3.2 0 0 0-3.3 3.2h4Zm0 5.2v-5.2h-4v5.2h4Zm-.7-.8c.3 0 .7.3.7.8h-4c0 1.8 1.5 3.2 3.2 3.2l.1-4ZM30.4 30c-4.8-4.8-11.4-8-18.7-8.3l-.2 4c6.3.3 12 3 16.1 7.1l2.8-2.8Zm8.3 18.7A28.4 28.4 0 0 0 30.4 30l-2.8 2.8c4.2 4.2 6.8 9.9 7.1 16.1l4-.2ZM35.5 52c1.8 0 3.3-1.5 3.2-3.4l-4 .2c0-.4.4-.8.8-.8v4Zm-5.2 0h5.2v-4h-5.2v4Zm-3.2-3.1a3.3 3.3 0 0 0 3.2 3.1v-4l.6.2.1.4-4 .3ZM22 38c3 3 4.7 6.7 5 10.8l4-.3c-.4-5-2.5-9.7-6-13.3L22 38Zm-10.6-4.8c4 .2 7.8 2 10.7 4.8l2.8-2.8a20.6 20.6 0 0 0-13.2-6l-.3 4Zm-3-3.2c0 1.8 1.4 3.1 3 3.3l.4-4c.2 0 .6.2.6.7h-4Zm0-5.2V30h4v-5.2h-4Zm3.3-3.2a3.2 3.2 0 0 0-3.3 3.2h4c0 .4-.4.8-.9.8l.2-4Zm25 26.2A26.4 26.4 0 0 0 29 31.3l-2.8 2.9c3.6 3.6 6 8.5 6.5 14l4-.4ZM31 50h3.7v-4H31v4Zm-7.4-13.3c3.1 3.1 5 7.2 5.4 11.5l4-.4a22.6 22.6 0 0 0-6.6-14l-2.8 3Zm-11.4-5.4c4.3.4 8.3 2.3 11.4 5.4l2.8-2.8c-3.7-3.8-8.6-6-13.8-6.6l-.4 4Zm-1.8-5.6v3.6h4v-3.6h-4ZM29 31.3a26 26 0 0 0-16.5-7.6l-.3 4c5.4.4 10.3 2.8 14 6.5l2.8-2.9Zm0 0-2.8 2.9 2.8-2.9Z" fill="#46B843" mask="url(#a)"></path>
    <circle cx="14.7" cy="44.8" stroke="#46B843" stroke-width="2" r="5.2"></circle>
  </symbol>
  <symbol fill="none" xmlns="http://www.w3.org/2000/svg" viewBox="0 0 24 24" id="alert">
    <path fill-rule="evenodd" clip-rule="evenodd" d="M23 21 12 2 1 21h22Zm-12-3v-2h2v2h-2Zm0-4h2v-4h-2v4Z" fill="#FF8D00"></path>
  </symbol>
  <symbol fill="none" xmlns="http://www.w3.org/2000/svg" viewBox="0 0 60 60" id="bell">
    <path d="M44 33.1v.2l.2.3 3.9 8a.9.9 0 0 1-.8 1.2H34.8V44a5 5 0 1 1-10 0v-1.2H12.5a.9.9 0 0 1-.8-1.2l4-8v-8.2a14 14 0 0 1 9-13v-.1a6.1 6.1 0 0 1 .4-.2 18.4 18.4 0 0 1 4.7-.9 15.6 15.6 0 0 1 5.5 1.1c5.3 2.2 8.9 7.4 8.9 13.1v7.7Z" stroke="#46B843" stroke-width="2"></path>
    <path d="M15.4 43.3h28.5" stroke="#46B843" stroke-width="2" stroke-linecap="square"></path>
  </symbol>
  <symbol fill="none" xmlns="http://www.w3.org/2000/svg" viewBox="0 0 24 24" id="close">
    <path d="M19 6.4 17.6 5 12 10.6 6.4 5 5 6.4l5.6 5.6L5 17.6 6.4 19l5.6-5.6 5.6 5.6 1.4-1.4-5.6-5.6L19 6.4Z" fill="#889099"></path>
  </symbol>
  <symbol fill="none" xmlns="http://www.w3.org/2000/svg" viewBox="0 0 17 16" id="comment">
    <path d="M5 11.3v-.7H3.8V3.4h9.6v7.2H8.4L5 12.4v-1ZM5 13Z" stroke="#889099" stroke-width="1.5"></path>
  </symbol>
  <symbol fill="none" xmlns="http://www.w3.org/2000/svg" viewBox="0 0 24 24" id="arrow-right">
    <path fill-rule="evenodd" clip-rule="evenodd" d="M19.8 11.6c.3.2.3.6 0 .8l-4.5 4.4c-.2.3-.6.3-.8 0a.5.5 0 0 1 0-.7l3.6-3.5H5.6A.6.6 0 0 1 5 12c0-.3.3-.6.6-.6H18L14.5 8a.5.5 0 0 1 0-.7.6.6 0 0 1 .8 0l4.5 4.4Z" fill="#4CB649"></path>
  </symbol>
  <symbol fill="none" xmlns="http://www.w3.org/2000/svg" viewBox="0 0 20 20" id="search">
    <circle cx="8.5" cy="8.5" r="7.5" stroke="#22252E" stroke-width="2" stroke-linecap="round" stroke-linejoin="round"></circle>
    <path d="m19 19-5.2-5.2" stroke="#22252E" stroke-width="2" stroke-linecap="round" stroke-linejoin="round"></path>
  </symbol>
</svg>